<svg id="visual" viewBox="0 0 900 600" width="900" height="600" xmlns="http://www.w3.org/2000/svg" xmlns:xlink="http://www.w3.org/1999/xlink" version="1.1"><path d="M0 55L75 55L75 91L150 91L150 37L225 37L225 49L300 49L300 97L375 97L375 73L450 73L450 37L525 37L525 49L600 49L600 79L675 79L675 79L750 79L750 49L825 49L825 37L900 37L900 37L900 0L900 0L825 0L825 0L750 0L750 0L675 0L675 0L600 0L600 0L525 0L525 0L450 0L450 0L375 0L375 0L300 0L300 0L225 0L225 0L150 0L150 0L75 0L75 0L0 0Z" fill="#2e663b"></path><path d="M0 121L75 121L75 229L150 229L150 193L225 193L225 175L300 175L300 229L375 229L375 157L450 157L450 181L525 181L525 121L600 121L600 193L675 193L675 139L750 139L750 169L825 169L825 115L900 115L900 145L900 35L900 35L825 35L825 47L750 47L750 77L675 77L675 77L600 77L600 47L525 47L525 35L450 35L450 71L375 71L375 95L300 95L300 47L225 47L225 35L150 35L150 89L75 89L75 53L0 53Z" fill="#357640"></path><path d="M0 247L75 247L75 307L150 307L150 445L225 445L225 247L300 247L300 319L375 319L375 295L450 295L450 283L525 283L525 355L600 355L600 331L675 331L675 253L750 253L750 277L825 277L825 361L900 361L900 319L900 143L900 113L825 113L825 167L750 167L750 137L675 137L675 191L600 191L600 119L525 119L525 179L450 179L450 155L375 155L375 227L300 227L300 173L225 173L225 191L150 191L150 227L75 227L75 119L0 119Z" fill="#3d8744"></path><path d="M0 331L75 331L75 373L150 373L150 493L225 493L225 367L300 367L300 427L375 427L375 379L450 379L450 361L525 361L525 469L600 469L600 433L675 433L675 367L750 367L750 391L825 391L825 445L900 445L900 427L900 317L900 359L825 359L825 275L750 275L750 251L675 251L675 329L600 329L600 353L525 353L525 281L450 281L450 293L375 293L375 317L300 317L300 245L225 245L225 443L150 443L150 305L75 305L75 245L0 245Z" fill="#479847"></path><path d="M0 601L75 601L75 601L150 601L150 601L225 601L225 601L300 601L300 601L375 601L375 601L450 601L450 601L525 601L525 601L600 601L600 601L675 601L675 601L750 601L750 601L825 601L825 601L900 601L900 601L900 425L900 443L825 443L825 389L750 389L750 365L675 365L675 431L600 431L600 467L525 467L525 359L450 359L450 377L375 377L375 425L300 425L300 365L225 365L225 491L150 491L150 371L75 371L75 329L0 329Z" fill="#52a949"></path></svg>